<mxfile host="app.diagrams.net" agent="Mozilla/5.0 (Windows NT 6.1; Win64; x64; rv:109.0) Gecko/20100101 Firefox/115.0" version="24.7.12">
  <diagram name="Page-1" id="kygFFd9STtXj5JH_N3mj">
    <mxGraphModel dx="1044" dy="732" grid="1" gridSize="10" guides="1" tooltips="1" connect="1" arrows="1" fold="1" page="1" pageScale="1" pageWidth="850" pageHeight="1100" math="1" shadow="0">
      <root>
        <mxCell id="0" />
        <mxCell id="1" parent="0" />
        <mxCell id="BSecliJgVKlYDWdbfUVO-1" value="" style="pointerEvents=1;verticalLabelPosition=bottom;shadow=0;dashed=0;align=center;html=1;verticalAlign=top;shape=mxgraph.electrical.waveforms.sine_wave;strokeWidth=3;" parent="1" vertex="1">
          <mxGeometry x="80" y="230" width="120" height="100" as="geometry" />
        </mxCell>
        <mxCell id="BSecliJgVKlYDWdbfUVO-2" value="" style="pointerEvents=1;verticalLabelPosition=bottom;shadow=0;dashed=0;align=center;html=1;verticalAlign=top;shape=mxgraph.electrical.waveforms.sine_wave;strokeWidth=3;" parent="1" vertex="1">
          <mxGeometry x="200" y="230" width="120" height="100" as="geometry" />
        </mxCell>
        <mxCell id="BSecliJgVKlYDWdbfUVO-3" value="" style="pointerEvents=1;verticalLabelPosition=bottom;shadow=0;dashed=0;align=center;html=1;verticalAlign=top;shape=mxgraph.electrical.waveforms.sine_wave;strokeWidth=3;" parent="1" vertex="1">
          <mxGeometry x="320" y="230" width="120" height="100" as="geometry" />
        </mxCell>
        <mxCell id="BSecliJgVKlYDWdbfUVO-4" value="" style="endArrow=blockThin;html=1;rounded=0;endFill=1;strokeWidth=2;strokeColor=#97D077;" parent="1" edge="1">
          <mxGeometry width="50" height="50" relative="1" as="geometry">
            <mxPoint x="720" y="320" as="sourcePoint" />
            <mxPoint x="720" y="240" as="targetPoint" />
          </mxGeometry>
        </mxCell>
        <mxCell id="BSecliJgVKlYDWdbfUVO-5" value="" style="endArrow=blockThin;html=1;rounded=0;endFill=1;strokeWidth=2;strokeColor=#97D077;" parent="1" edge="1">
          <mxGeometry width="50" height="50" relative="1" as="geometry">
            <mxPoint x="880" y="320" as="sourcePoint" />
            <mxPoint x="880" y="240" as="targetPoint" />
          </mxGeometry>
        </mxCell>
        <mxCell id="BSecliJgVKlYDWdbfUVO-6" value="" style="endArrow=blockThin;html=1;rounded=0;endFill=1;" parent="1" edge="1">
          <mxGeometry width="50" height="50" relative="1" as="geometry">
            <mxPoint x="640" y="320" as="sourcePoint" />
            <mxPoint x="960" y="320" as="targetPoint" />
          </mxGeometry>
        </mxCell>
        <mxCell id="BSecliJgVKlYDWdbfUVO-7" value="" style="endArrow=blockThin;html=1;rounded=0;endFill=1;strokeColor=#919191;" parent="1" edge="1">
          <mxGeometry width="50" height="50" relative="1" as="geometry">
            <mxPoint x="520" y="279.65999999999997" as="sourcePoint" />
            <mxPoint x="640" y="279.65999999999997" as="targetPoint" />
          </mxGeometry>
        </mxCell>
        <mxCell id="BSecliJgVKlYDWdbfUVO-9" value="&lt;font color=&quot;#ff3333&quot; style=&quot;font-size: 18px;&quot;&gt;$$\pi$$&lt;/font&gt;" style="text;html=1;align=center;verticalAlign=middle;whiteSpace=wrap;rounded=0;" parent="1" vertex="1">
          <mxGeometry x="960" y="220" width="60" height="30" as="geometry" />
        </mxCell>
        <mxCell id="BSecliJgVKlYDWdbfUVO-10" value="" style="endArrow=blockThin;html=1;rounded=0;strokeColor=#919191;endFill=1;" parent="1" edge="1">
          <mxGeometry width="50" height="50" relative="1" as="geometry">
            <mxPoint x="800" y="340" as="sourcePoint" />
            <mxPoint x="800" y="190" as="targetPoint" />
          </mxGeometry>
        </mxCell>
        <mxCell id="BSecliJgVKlYDWdbfUVO-11" value="&lt;font style=&quot;font-size: 20px;&quot;&gt;0&lt;/font&gt;" style="text;html=1;align=center;verticalAlign=middle;whiteSpace=wrap;rounded=0;" parent="1" vertex="1">
          <mxGeometry x="780" y="320" width="60" height="30" as="geometry" />
        </mxCell>
        <mxCell id="BSecliJgVKlYDWdbfUVO-12" value="&lt;font style=&quot;font-size: 20px;&quot;&gt;$$-\omega_0$$&lt;/font&gt;" style="text;html=1;align=center;verticalAlign=middle;whiteSpace=wrap;rounded=0;" parent="1" vertex="1">
          <mxGeometry x="690" y="320" width="60" height="30" as="geometry" />
        </mxCell>
        <mxCell id="BSecliJgVKlYDWdbfUVO-13" value="&lt;font style=&quot;font-size: 20px;&quot;&gt;$$\omega_0$$&lt;/font&gt;" style="text;html=1;align=center;verticalAlign=middle;whiteSpace=wrap;rounded=0;" parent="1" vertex="1">
          <mxGeometry x="850" y="320" width="60" height="30" as="geometry" />
        </mxCell>
        <mxCell id="BSecliJgVKlYDWdbfUVO-14" value="&lt;font style=&quot;font-size: 20px;&quot;&gt;$$\omega$$&lt;/font&gt;" style="text;html=1;align=center;verticalAlign=middle;whiteSpace=wrap;rounded=0;" parent="1" vertex="1">
          <mxGeometry x="930" y="320" width="60" height="30" as="geometry" />
        </mxCell>
        <mxCell id="BSecliJgVKlYDWdbfUVO-15" value="" style="endArrow=blockThin;html=1;rounded=0;endFill=1;strokeColor=#919191;" parent="1" edge="1">
          <mxGeometry width="50" height="50" relative="1" as="geometry">
            <mxPoint x="50" y="279.66" as="sourcePoint" />
            <mxPoint x="480" y="280" as="targetPoint" />
          </mxGeometry>
        </mxCell>
        <mxCell id="BSecliJgVKlYDWdbfUVO-16" value="&lt;font style=&quot;font-size: 20px;&quot;&gt;$$t$$&lt;/font&gt;" style="text;html=1;align=center;verticalAlign=middle;whiteSpace=wrap;rounded=0;" parent="1" vertex="1">
          <mxGeometry x="449" y="282" width="60" height="30" as="geometry" />
        </mxCell>
        <mxCell id="BSecliJgVKlYDWdbfUVO-17" value="&lt;font style=&quot;font-size: 20px;&quot;&gt;$$\mathbb{CTFT}$$&lt;/font&gt;" style="text;html=1;align=center;verticalAlign=middle;whiteSpace=wrap;rounded=0;" parent="1" vertex="1">
          <mxGeometry x="540" y="250" width="60" height="30" as="geometry" />
        </mxCell>
        <mxCell id="BSecliJgVKlYDWdbfUVO-18" value="" style="pointerEvents=1;verticalLabelPosition=bottom;shadow=0;dashed=1;align=center;html=1;verticalAlign=top;shape=mxgraph.electrical.waveforms.sine_wave;strokeWidth=3;strokeColor=#CCCCCC;dashPattern=1 1;" parent="1" vertex="1">
          <mxGeometry x="80" y="429" width="120" height="100" as="geometry" />
        </mxCell>
        <mxCell id="BSecliJgVKlYDWdbfUVO-19" value="" style="pointerEvents=1;verticalLabelPosition=bottom;shadow=0;dashed=0;align=center;html=1;verticalAlign=top;shape=mxgraph.electrical.waveforms.sine_wave;strokeWidth=3;" parent="1" vertex="1">
          <mxGeometry x="200" y="429" width="120" height="100" as="geometry" />
        </mxCell>
        <mxCell id="BSecliJgVKlYDWdbfUVO-20" value="" style="pointerEvents=1;verticalLabelPosition=bottom;shadow=0;dashed=1;align=center;html=1;verticalAlign=top;shape=mxgraph.electrical.waveforms.sine_wave;strokeWidth=3;strokeColor=#CCCCCC;dashPattern=1 1;" parent="1" vertex="1">
          <mxGeometry x="320" y="429" width="120" height="100" as="geometry" />
        </mxCell>
        <mxCell id="BSecliJgVKlYDWdbfUVO-23" value="" style="endArrow=blockThin;html=1;rounded=0;endFill=1;" parent="1" edge="1">
          <mxGeometry width="50" height="50" relative="1" as="geometry">
            <mxPoint x="640" y="519" as="sourcePoint" />
            <mxPoint x="960" y="519" as="targetPoint" />
          </mxGeometry>
        </mxCell>
        <mxCell id="BSecliJgVKlYDWdbfUVO-24" value="" style="endArrow=blockThin;html=1;rounded=0;endFill=1;strokeColor=#919191;" parent="1" edge="1">
          <mxGeometry width="50" height="50" relative="1" as="geometry">
            <mxPoint x="520" y="478.65999999999997" as="sourcePoint" />
            <mxPoint x="640" y="478.65999999999997" as="targetPoint" />
          </mxGeometry>
        </mxCell>
        <mxCell id="BSecliJgVKlYDWdbfUVO-26" value="&lt;font style=&quot;font-size: 18px;&quot;&gt;$$T_0\pi\cdot\frac{1}{2\pi}$$&lt;/font&gt;" style="text;html=1;align=center;verticalAlign=middle;whiteSpace=wrap;rounded=0;" parent="1" vertex="1">
          <mxGeometry x="992" y="429" width="60" height="30" as="geometry" />
        </mxCell>
        <mxCell id="BSecliJgVKlYDWdbfUVO-27" value="" style="endArrow=blockThin;html=1;rounded=0;strokeColor=#919191;endFill=1;" parent="1" edge="1">
          <mxGeometry width="50" height="50" relative="1" as="geometry">
            <mxPoint x="800" y="539" as="sourcePoint" />
            <mxPoint x="800" y="389" as="targetPoint" />
          </mxGeometry>
        </mxCell>
        <mxCell id="BSecliJgVKlYDWdbfUVO-28" value="&lt;font style=&quot;font-size: 20px;&quot;&gt;0&lt;/font&gt;" style="text;html=1;align=center;verticalAlign=middle;whiteSpace=wrap;rounded=0;" parent="1" vertex="1">
          <mxGeometry x="780" y="519" width="60" height="30" as="geometry" />
        </mxCell>
        <mxCell id="BSecliJgVKlYDWdbfUVO-29" value="&lt;font style=&quot;font-size: 20px;&quot;&gt;$$-\omega_0$$&lt;/font&gt;" style="text;html=1;align=center;verticalAlign=middle;whiteSpace=wrap;rounded=0;" parent="1" vertex="1">
          <mxGeometry x="690" y="519" width="60" height="30" as="geometry" />
        </mxCell>
        <mxCell id="BSecliJgVKlYDWdbfUVO-30" value="&lt;font style=&quot;font-size: 20px;&quot;&gt;$$\omega_0$$&lt;/font&gt;" style="text;html=1;align=center;verticalAlign=middle;whiteSpace=wrap;rounded=0;" parent="1" vertex="1">
          <mxGeometry x="850" y="519" width="60" height="30" as="geometry" />
        </mxCell>
        <mxCell id="BSecliJgVKlYDWdbfUVO-31" value="&lt;font style=&quot;font-size: 20px;&quot;&gt;$$\omega$$&lt;/font&gt;" style="text;html=1;align=center;verticalAlign=middle;whiteSpace=wrap;rounded=0;" parent="1" vertex="1">
          <mxGeometry x="930" y="519" width="60" height="30" as="geometry" />
        </mxCell>
        <mxCell id="BSecliJgVKlYDWdbfUVO-32" value="" style="endArrow=blockThin;html=1;rounded=0;endFill=1;strokeColor=#919191;" parent="1" edge="1">
          <mxGeometry width="50" height="50" relative="1" as="geometry">
            <mxPoint x="50" y="478.66" as="sourcePoint" />
            <mxPoint x="480" y="479" as="targetPoint" />
          </mxGeometry>
        </mxCell>
        <mxCell id="BSecliJgVKlYDWdbfUVO-33" value="&lt;font style=&quot;font-size: 20px;&quot;&gt;$$t$$&lt;/font&gt;" style="text;html=1;align=center;verticalAlign=middle;whiteSpace=wrap;rounded=0;" parent="1" vertex="1">
          <mxGeometry x="449" y="481" width="60" height="30" as="geometry" />
        </mxCell>
        <mxCell id="BSecliJgVKlYDWdbfUVO-34" value="&lt;font style=&quot;font-size: 20px;&quot;&gt;$$\mathbb{CTFT}$$&lt;/font&gt;" style="text;html=1;align=center;verticalAlign=middle;whiteSpace=wrap;rounded=0;" parent="1" vertex="1">
          <mxGeometry x="540" y="449" width="60" height="30" as="geometry" />
        </mxCell>
        <mxCell id="BSecliJgVKlYDWdbfUVO-35" value="" style="endArrow=none;html=1;rounded=0;fillColor=#d5e8d4;strokeColor=#82b366;strokeWidth=2;" parent="1" edge="1">
          <mxGeometry width="50" height="50" relative="1" as="geometry">
            <mxPoint x="201" y="440" as="sourcePoint" />
            <mxPoint x="321" y="440" as="targetPoint" />
          </mxGeometry>
        </mxCell>
        <mxCell id="BSecliJgVKlYDWdbfUVO-37" value="" style="endArrow=none;html=1;rounded=0;fillColor=#d5e8d4;strokeColor=#82b366;strokeWidth=2;" parent="1" edge="1">
          <mxGeometry width="50" height="50" relative="1" as="geometry">
            <mxPoint x="200.89" y="480" as="sourcePoint" />
            <mxPoint x="200.89" y="440" as="targetPoint" />
          </mxGeometry>
        </mxCell>
        <mxCell id="BSecliJgVKlYDWdbfUVO-38" value="" style="endArrow=none;html=1;rounded=0;fillColor=#d5e8d4;strokeColor=#82b366;strokeWidth=2;" parent="1" edge="1">
          <mxGeometry width="50" height="50" relative="1" as="geometry">
            <mxPoint x="321" y="479" as="sourcePoint" />
            <mxPoint x="321" y="440" as="targetPoint" />
          </mxGeometry>
        </mxCell>
        <mxCell id="BSecliJgVKlYDWdbfUVO-39" value="&lt;font style=&quot;font-size: 16px;&quot;&gt;$$0$$&lt;/font&gt;" style="text;html=1;align=center;verticalAlign=middle;whiteSpace=wrap;rounded=0;" parent="1" vertex="1">
          <mxGeometry x="180" y="280" width="60" height="30" as="geometry" />
        </mxCell>
        <mxCell id="BSecliJgVKlYDWdbfUVO-41" value="&lt;font style=&quot;font-size: 16px;&quot;&gt;$$T_0$$&lt;/font&gt;" style="text;html=1;align=center;verticalAlign=middle;whiteSpace=wrap;rounded=0;" parent="1" vertex="1">
          <mxGeometry x="304" y="280" width="60" height="30" as="geometry" />
        </mxCell>
        <mxCell id="BSecliJgVKlYDWdbfUVO-43" value="&lt;font style=&quot;font-size: 16px;&quot;&gt;$$-T_0$$&lt;/font&gt;" style="text;html=1;align=center;verticalAlign=middle;whiteSpace=wrap;rounded=0;" parent="1" vertex="1">
          <mxGeometry x="50" y="280" width="60" height="30" as="geometry" />
        </mxCell>
        <mxCell id="BSecliJgVKlYDWdbfUVO-45" value="&lt;b style=&quot;&quot;&gt;&lt;font style=&quot;font-size: 24px;&quot;&gt;...&lt;/font&gt;&lt;/b&gt;" style="text;html=1;align=center;verticalAlign=middle;whiteSpace=wrap;rounded=0;" parent="1" vertex="1">
          <mxGeometry x="20" y="240" width="60" height="30" as="geometry" />
        </mxCell>
        <mxCell id="BSecliJgVKlYDWdbfUVO-46" value="&lt;b style=&quot;&quot;&gt;&lt;font style=&quot;font-size: 24px;&quot;&gt;...&lt;/font&gt;&lt;/b&gt;" style="text;html=1;align=center;verticalAlign=middle;whiteSpace=wrap;rounded=0;" parent="1" vertex="1">
          <mxGeometry x="430" y="240" width="60" height="30" as="geometry" />
        </mxCell>
        <mxCell id="BSecliJgVKlYDWdbfUVO-47" value="&lt;font style=&quot;font-size: 16px;&quot;&gt;$$0$$&lt;/font&gt;" style="text;html=1;align=center;verticalAlign=middle;whiteSpace=wrap;rounded=0;" parent="1" vertex="1">
          <mxGeometry x="175" y="479" width="60" height="30" as="geometry" />
        </mxCell>
        <mxCell id="BSecliJgVKlYDWdbfUVO-48" value="&lt;font style=&quot;font-size: 16px;&quot;&gt;$$T_0$$&lt;/font&gt;" style="text;html=1;align=center;verticalAlign=middle;whiteSpace=wrap;rounded=0;" parent="1" vertex="1">
          <mxGeometry x="303" y="479" width="60" height="30" as="geometry" />
        </mxCell>
        <mxCell id="BSecliJgVKlYDWdbfUVO-49" value="" style="endArrow=blockThin;html=1;rounded=0;endFill=1;strokeColor=#919191;" parent="1" edge="1">
          <mxGeometry width="50" height="50" relative="1" as="geometry">
            <mxPoint x="240" y="349.30999999999995" as="sourcePoint" />
            <mxPoint x="240" y="410" as="targetPoint" />
          </mxGeometry>
        </mxCell>
        <mxCell id="BSecliJgVKlYDWdbfUVO-50" value="&lt;font style=&quot;font-size: 15px;&quot;&gt;&lt;i&gt;windowing&lt;/i&gt;&lt;/font&gt;" style="text;html=1;align=center;verticalAlign=middle;whiteSpace=wrap;rounded=0;" parent="1" vertex="1">
          <mxGeometry x="250" y="360" width="60" height="30" as="geometry" />
        </mxCell>
        <mxCell id="BSecliJgVKlYDWdbfUVO-75" value="" style="pointerEvents=1;verticalLabelPosition=bottom;shadow=0;dashed=0;align=center;html=1;verticalAlign=top;shape=mxgraph.electrical.waveforms.sine_wave;strokeWidth=3;" parent="1" vertex="1">
          <mxGeometry x="200" y="629" width="120" height="100" as="geometry" />
        </mxCell>
        <mxCell id="BSecliJgVKlYDWdbfUVO-79" value="" style="endArrow=blockThin;html=1;rounded=0;endFill=1;" parent="1" edge="1">
          <mxGeometry width="50" height="50" relative="1" as="geometry">
            <mxPoint x="640" y="719" as="sourcePoint" />
            <mxPoint x="960" y="719" as="targetPoint" />
          </mxGeometry>
        </mxCell>
        <mxCell id="BSecliJgVKlYDWdbfUVO-80" value="" style="endArrow=blockThin;html=1;rounded=0;endFill=1;strokeColor=#919191;" parent="1" edge="1">
          <mxGeometry width="50" height="50" relative="1" as="geometry">
            <mxPoint x="520" y="678.66" as="sourcePoint" />
            <mxPoint x="640" y="678.66" as="targetPoint" />
          </mxGeometry>
        </mxCell>
        <mxCell id="BSecliJgVKlYDWdbfUVO-83" value="" style="endArrow=blockThin;html=1;rounded=0;strokeColor=#919191;endFill=1;" parent="1" edge="1">
          <mxGeometry width="50" height="50" relative="1" as="geometry">
            <mxPoint x="800" y="739" as="sourcePoint" />
            <mxPoint x="800" y="589" as="targetPoint" />
          </mxGeometry>
        </mxCell>
        <mxCell id="BSecliJgVKlYDWdbfUVO-84" value="&lt;font style=&quot;font-size: 20px;&quot;&gt;0&lt;/font&gt;" style="text;html=1;align=center;verticalAlign=middle;whiteSpace=wrap;rounded=0;" parent="1" vertex="1">
          <mxGeometry x="780" y="719" width="60" height="30" as="geometry" />
        </mxCell>
        <mxCell id="BSecliJgVKlYDWdbfUVO-85" value="&lt;font style=&quot;font-size: 20px;&quot;&gt;$$-\omega_0$$&lt;/font&gt;" style="text;html=1;align=center;verticalAlign=middle;whiteSpace=wrap;rounded=0;" parent="1" vertex="1">
          <mxGeometry x="690" y="719" width="60" height="30" as="geometry" />
        </mxCell>
        <mxCell id="BSecliJgVKlYDWdbfUVO-86" value="&lt;font style=&quot;font-size: 20px;&quot;&gt;$$\omega_0$$&lt;/font&gt;" style="text;html=1;align=center;verticalAlign=middle;whiteSpace=wrap;rounded=0;" parent="1" vertex="1">
          <mxGeometry x="850" y="719" width="60" height="30" as="geometry" />
        </mxCell>
        <mxCell id="BSecliJgVKlYDWdbfUVO-87" value="&lt;font style=&quot;font-size: 20px;&quot;&gt;$$\omega$$&lt;/font&gt;" style="text;html=1;align=center;verticalAlign=middle;whiteSpace=wrap;rounded=0;" parent="1" vertex="1">
          <mxGeometry x="930" y="719" width="60" height="30" as="geometry" />
        </mxCell>
        <mxCell id="BSecliJgVKlYDWdbfUVO-88" value="" style="endArrow=blockThin;html=1;rounded=0;endFill=1;strokeColor=#919191;" parent="1" edge="1">
          <mxGeometry width="50" height="50" relative="1" as="geometry">
            <mxPoint x="50" y="678.6600000000001" as="sourcePoint" />
            <mxPoint x="480" y="679" as="targetPoint" />
          </mxGeometry>
        </mxCell>
        <mxCell id="BSecliJgVKlYDWdbfUVO-89" value="&lt;font style=&quot;font-size: 20px;&quot;&gt;$$t$$&lt;/font&gt;" style="text;html=1;align=center;verticalAlign=middle;whiteSpace=wrap;rounded=0;" parent="1" vertex="1">
          <mxGeometry x="449" y="681" width="60" height="30" as="geometry" />
        </mxCell>
        <mxCell id="BSecliJgVKlYDWdbfUVO-90" value="&lt;font style=&quot;font-size: 20px;&quot;&gt;$$\mathbb{CTFT}$$&lt;/font&gt;" style="text;html=1;align=center;verticalAlign=middle;whiteSpace=wrap;rounded=0;" parent="1" vertex="1">
          <mxGeometry x="540" y="649" width="60" height="30" as="geometry" />
        </mxCell>
        <mxCell id="BSecliJgVKlYDWdbfUVO-94" value="&lt;font style=&quot;font-size: 14px;&quot;&gt;$$0$$&lt;/font&gt;" style="text;html=1;align=center;verticalAlign=middle;whiteSpace=wrap;rounded=0;" parent="1" vertex="1">
          <mxGeometry x="170" y="679" width="60" height="30" as="geometry" />
        </mxCell>
        <mxCell id="BSecliJgVKlYDWdbfUVO-95" value="&lt;font style=&quot;font-size: 14px;&quot;&gt;$$T_0$$&lt;/font&gt;" style="text;html=1;align=center;verticalAlign=middle;whiteSpace=wrap;rounded=0;" parent="1" vertex="1">
          <mxGeometry x="305" y="679" width="60" height="30" as="geometry" />
        </mxCell>
        <mxCell id="BSecliJgVKlYDWdbfUVO-96" value="" style="endArrow=blockThin;html=1;rounded=0;endFill=1;strokeColor=#7EA6E0;entryX=0.091;entryY=0.316;entryDx=0;entryDy=0;entryPerimeter=0;" parent="1" target="BSecliJgVKlYDWdbfUVO-75" edge="1">
          <mxGeometry width="50" height="50" relative="1" as="geometry">
            <mxPoint x="210.8" y="679" as="sourcePoint" />
            <mxPoint x="210.8" y="645" as="targetPoint" />
          </mxGeometry>
        </mxCell>
        <mxCell id="BSecliJgVKlYDWdbfUVO-97" value="" style="endArrow=blockThin;html=1;rounded=0;endFill=1;strokeColor=#7EA6E0;" parent="1" edge="1">
          <mxGeometry width="50" height="50" relative="1" as="geometry">
            <mxPoint x="220" y="679" as="sourcePoint" />
            <mxPoint x="220" y="648" as="targetPoint" />
          </mxGeometry>
        </mxCell>
        <mxCell id="BSecliJgVKlYDWdbfUVO-98" value="" style="endArrow=blockThin;html=1;rounded=0;endFill=1;strokeColor=#7EA6E0;exitX=0;exitY=0;exitDx=0;exitDy=0;startSize=1;" parent="1" edge="1">
          <mxGeometry width="50" height="50" relative="1" as="geometry">
            <mxPoint x="230" y="679" as="sourcePoint" />
            <mxPoint x="230" y="643" as="targetPoint" />
          </mxGeometry>
        </mxCell>
        <mxCell id="BSecliJgVKlYDWdbfUVO-99" value="" style="endArrow=blockThin;html=1;rounded=0;endFill=1;strokeColor=#7EA6E0;" parent="1" edge="1">
          <mxGeometry width="50" height="50" relative="1" as="geometry">
            <mxPoint x="240.87" y="679.5" as="sourcePoint" />
            <mxPoint x="240.87" y="648.5" as="targetPoint" />
          </mxGeometry>
        </mxCell>
        <mxCell id="BSecliJgVKlYDWdbfUVO-100" value="" style="endArrow=blockThin;html=1;rounded=0;endFill=1;strokeColor=#7EA6E0;entryX=0.091;entryY=0.316;entryDx=0;entryDy=0;entryPerimeter=0;" parent="1" edge="1">
          <mxGeometry width="50" height="50" relative="1" as="geometry">
            <mxPoint x="250" y="679" as="sourcePoint" />
            <mxPoint x="250.2" y="661" as="targetPoint" />
          </mxGeometry>
        </mxCell>
        <mxCell id="BSecliJgVKlYDWdbfUVO-101" value="" style="endArrow=blockThin;html=1;rounded=0;endFill=1;strokeColor=#7EA6E0;entryX=0.091;entryY=0.316;entryDx=0;entryDy=0;entryPerimeter=0;" parent="1" edge="1">
          <mxGeometry width="50" height="50" relative="1" as="geometry">
            <mxPoint x="269.28000000000003" y="679.4999999999998" as="sourcePoint" />
            <mxPoint x="269.48" y="697.4999999999998" as="targetPoint" />
          </mxGeometry>
        </mxCell>
        <mxCell id="BSecliJgVKlYDWdbfUVO-102" value="" style="endArrow=blockThin;html=1;rounded=0;endFill=1;strokeColor=#7EA6E0;" parent="1" edge="1">
          <mxGeometry width="50" height="50" relative="1" as="geometry">
            <mxPoint x="278.48" y="679.5" as="sourcePoint" />
            <mxPoint x="278.48" y="710.5" as="targetPoint" />
          </mxGeometry>
        </mxCell>
        <mxCell id="BSecliJgVKlYDWdbfUVO-103" value="" style="endArrow=blockThin;html=1;rounded=0;endFill=1;strokeColor=#7EA6E0;exitX=0;exitY=0;exitDx=0;exitDy=0;startSize=1;" parent="1" edge="1">
          <mxGeometry width="50" height="50" relative="1" as="geometry">
            <mxPoint x="288.48" y="679.5" as="sourcePoint" />
            <mxPoint x="288.48" y="715.5" as="targetPoint" />
          </mxGeometry>
        </mxCell>
        <mxCell id="BSecliJgVKlYDWdbfUVO-104" value="" style="endArrow=blockThin;html=1;rounded=0;endFill=1;strokeColor=#7EA6E0;" parent="1" edge="1">
          <mxGeometry width="50" height="50" relative="1" as="geometry">
            <mxPoint x="299.35" y="679.0000000000002" as="sourcePoint" />
            <mxPoint x="299.35" y="710.0000000000002" as="targetPoint" />
          </mxGeometry>
        </mxCell>
        <mxCell id="BSecliJgVKlYDWdbfUVO-105" value="" style="endArrow=blockThin;html=1;rounded=0;endFill=1;strokeColor=#7EA6E0;entryX=0.091;entryY=0.316;entryDx=0;entryDy=0;entryPerimeter=0;" parent="1" edge="1">
          <mxGeometry width="50" height="50" relative="1" as="geometry">
            <mxPoint x="308.48" y="679.4999999999998" as="sourcePoint" />
            <mxPoint x="308.68" y="697.4999999999998" as="targetPoint" />
          </mxGeometry>
        </mxCell>
        <mxCell id="BSecliJgVKlYDWdbfUVO-106" value="" style="endArrow=none;html=1;rounded=0;strokeColor=#919191;endFill=0;dashed=1;dashPattern=1 2;" parent="1" edge="1">
          <mxGeometry width="50" height="50" relative="1" as="geometry">
            <mxPoint x="230" y="713" as="sourcePoint" />
            <mxPoint x="230" y="629" as="targetPoint" />
          </mxGeometry>
        </mxCell>
        <mxCell id="BSecliJgVKlYDWdbfUVO-107" value="" style="endArrow=none;html=1;rounded=0;strokeColor=#919191;endFill=0;dashed=1;dashPattern=1 2;" parent="1" edge="1">
          <mxGeometry width="50" height="50" relative="1" as="geometry">
            <mxPoint x="241" y="713" as="sourcePoint" />
            <mxPoint x="241" y="629" as="targetPoint" />
          </mxGeometry>
        </mxCell>
        <mxCell id="BSecliJgVKlYDWdbfUVO-108" value="" style="endArrow=blockThin;startArrow=blockThin;html=1;rounded=0;endFill=1;startFill=1;strokeColor=#CCCCCC;" parent="1" edge="1">
          <mxGeometry width="50" height="50" relative="1" as="geometry">
            <mxPoint x="225" y="703" as="sourcePoint" />
            <mxPoint x="245" y="703" as="targetPoint" />
          </mxGeometry>
        </mxCell>
        <mxCell id="BSecliJgVKlYDWdbfUVO-109" value="&lt;font style=&quot;font-size: 14px;&quot;&gt;$$T_s$$&lt;/font&gt;" style="text;html=1;align=center;verticalAlign=middle;whiteSpace=wrap;rounded=0;" parent="1" vertex="1">
          <mxGeometry x="210" y="709" width="60" height="30" as="geometry" />
        </mxCell>
        <mxCell id="BSecliJgVKlYDWdbfUVO-111" value="" style="pointerEvents=1;verticalLabelPosition=bottom;shadow=0;dashed=0;align=center;html=1;verticalAlign=top;shape=mxgraph.electrical.waveforms.sine_wave;strokeWidth=3;" parent="1" vertex="1">
          <mxGeometry x="200" y="830" width="120" height="100" as="geometry" />
        </mxCell>
        <mxCell id="BSecliJgVKlYDWdbfUVO-114" value="" style="endArrow=blockThin;html=1;rounded=0;endFill=1;" parent="1" edge="1">
          <mxGeometry width="50" height="50" relative="1" as="geometry">
            <mxPoint x="640" y="920" as="sourcePoint" />
            <mxPoint x="960" y="920" as="targetPoint" />
          </mxGeometry>
        </mxCell>
        <mxCell id="BSecliJgVKlYDWdbfUVO-115" value="" style="endArrow=blockThin;html=1;rounded=0;endFill=1;strokeColor=#919191;" parent="1" edge="1">
          <mxGeometry width="50" height="50" relative="1" as="geometry">
            <mxPoint x="520" y="879.66" as="sourcePoint" />
            <mxPoint x="640" y="879.66" as="targetPoint" />
          </mxGeometry>
        </mxCell>
        <mxCell id="BSecliJgVKlYDWdbfUVO-117" value="" style="endArrow=blockThin;html=1;rounded=0;strokeColor=#919191;endFill=1;" parent="1" edge="1">
          <mxGeometry width="50" height="50" relative="1" as="geometry">
            <mxPoint x="800" y="940" as="sourcePoint" />
            <mxPoint x="800" y="790" as="targetPoint" />
          </mxGeometry>
        </mxCell>
        <mxCell id="BSecliJgVKlYDWdbfUVO-118" value="&lt;font style=&quot;font-size: 20px;&quot;&gt;0&lt;/font&gt;" style="text;html=1;align=center;verticalAlign=middle;whiteSpace=wrap;rounded=0;" parent="1" vertex="1">
          <mxGeometry x="780" y="920" width="60" height="30" as="geometry" />
        </mxCell>
        <mxCell id="BSecliJgVKlYDWdbfUVO-119" value="&lt;font style=&quot;font-size: 20px;&quot;&gt;$$-\omega_0T_s$$&lt;/font&gt;" style="text;html=1;align=center;verticalAlign=middle;whiteSpace=wrap;rounded=0;" parent="1" vertex="1">
          <mxGeometry x="690" y="920" width="60" height="30" as="geometry" />
        </mxCell>
        <mxCell id="BSecliJgVKlYDWdbfUVO-120" value="&lt;span style=&quot;font-size: 20px;&quot;&gt;$$\omega_0T_s$$&lt;/span&gt;" style="text;html=1;align=center;verticalAlign=middle;whiteSpace=wrap;rounded=0;" parent="1" vertex="1">
          <mxGeometry x="850" y="920" width="60" height="30" as="geometry" />
        </mxCell>
        <mxCell id="BSecliJgVKlYDWdbfUVO-121" value="&lt;font style=&quot;font-size: 20px;&quot;&gt;$$\hat{\omega}$$&lt;/font&gt;" style="text;html=1;align=center;verticalAlign=middle;whiteSpace=wrap;rounded=0;" parent="1" vertex="1">
          <mxGeometry x="930" y="920" width="60" height="30" as="geometry" />
        </mxCell>
        <mxCell id="BSecliJgVKlYDWdbfUVO-122" value="" style="endArrow=blockThin;html=1;rounded=0;endFill=1;strokeColor=#919191;" parent="1" edge="1">
          <mxGeometry width="50" height="50" relative="1" as="geometry">
            <mxPoint x="50" y="879.6600000000001" as="sourcePoint" />
            <mxPoint x="480" y="880" as="targetPoint" />
          </mxGeometry>
        </mxCell>
        <mxCell id="BSecliJgVKlYDWdbfUVO-123" value="&lt;font style=&quot;font-size: 20px;&quot;&gt;$$t$$&lt;/font&gt;" style="text;html=1;align=center;verticalAlign=middle;whiteSpace=wrap;rounded=0;" parent="1" vertex="1">
          <mxGeometry x="449" y="882" width="60" height="30" as="geometry" />
        </mxCell>
        <mxCell id="BSecliJgVKlYDWdbfUVO-124" value="&lt;font style=&quot;font-size: 20px;&quot;&gt;$$\mathbb{DTFT}$$&lt;/font&gt;" style="text;html=1;align=center;verticalAlign=middle;whiteSpace=wrap;rounded=0;" parent="1" vertex="1">
          <mxGeometry x="540" y="850" width="60" height="30" as="geometry" />
        </mxCell>
        <mxCell id="BSecliJgVKlYDWdbfUVO-125" value="&lt;font style=&quot;font-size: 14px;&quot;&gt;$$0$$&lt;/font&gt;" style="text;html=1;align=center;verticalAlign=middle;whiteSpace=wrap;rounded=0;" parent="1" vertex="1">
          <mxGeometry x="170" y="880" width="60" height="30" as="geometry" />
        </mxCell>
        <mxCell id="BSecliJgVKlYDWdbfUVO-126" value="&lt;font style=&quot;font-size: 14px;&quot;&gt;$$T_0$$&lt;/font&gt;" style="text;html=1;align=center;verticalAlign=middle;whiteSpace=wrap;rounded=0;" parent="1" vertex="1">
          <mxGeometry x="305" y="880" width="60" height="30" as="geometry" />
        </mxCell>
        <mxCell id="BSecliJgVKlYDWdbfUVO-127" value="" style="endArrow=oval;html=1;rounded=0;endFill=1;strokeColor=#7EA6E0;entryX=0.091;entryY=0.316;entryDx=0;entryDy=0;entryPerimeter=0;" parent="1" target="BSecliJgVKlYDWdbfUVO-111" edge="1">
          <mxGeometry width="50" height="50" relative="1" as="geometry">
            <mxPoint x="210.8" y="880" as="sourcePoint" />
            <mxPoint x="210.8" y="846" as="targetPoint" />
          </mxGeometry>
        </mxCell>
        <mxCell id="BSecliJgVKlYDWdbfUVO-128" value="" style="endArrow=oval;html=1;rounded=0;endFill=1;strokeColor=#7EA6E0;" parent="1" edge="1">
          <mxGeometry width="50" height="50" relative="1" as="geometry">
            <mxPoint x="220" y="880" as="sourcePoint" />
            <mxPoint x="220" y="849" as="targetPoint" />
          </mxGeometry>
        </mxCell>
        <mxCell id="BSecliJgVKlYDWdbfUVO-129" value="" style="endArrow=oval;html=1;rounded=0;endFill=1;strokeColor=#7EA6E0;exitX=0;exitY=0;exitDx=0;exitDy=0;startSize=1;" parent="1" edge="1">
          <mxGeometry width="50" height="50" relative="1" as="geometry">
            <mxPoint x="230" y="880" as="sourcePoint" />
            <mxPoint x="230" y="844" as="targetPoint" />
          </mxGeometry>
        </mxCell>
        <mxCell id="BSecliJgVKlYDWdbfUVO-130" value="" style="endArrow=oval;html=1;rounded=0;endFill=1;strokeColor=#7EA6E0;" parent="1" edge="1">
          <mxGeometry width="50" height="50" relative="1" as="geometry">
            <mxPoint x="240.87" y="880.5" as="sourcePoint" />
            <mxPoint x="240.87" y="849.5" as="targetPoint" />
          </mxGeometry>
        </mxCell>
        <mxCell id="BSecliJgVKlYDWdbfUVO-131" value="" style="endArrow=oval;html=1;rounded=0;endFill=1;strokeColor=#7EA6E0;entryX=0.091;entryY=0.316;entryDx=0;entryDy=0;entryPerimeter=0;" parent="1" edge="1">
          <mxGeometry width="50" height="50" relative="1" as="geometry">
            <mxPoint x="250" y="880" as="sourcePoint" />
            <mxPoint x="250.2" y="862" as="targetPoint" />
          </mxGeometry>
        </mxCell>
        <mxCell id="BSecliJgVKlYDWdbfUVO-132" value="" style="endArrow=oval;html=1;rounded=0;endFill=1;strokeColor=#7EA6E0;entryX=0.091;entryY=0.316;entryDx=0;entryDy=0;entryPerimeter=0;" parent="1" edge="1">
          <mxGeometry width="50" height="50" relative="1" as="geometry">
            <mxPoint x="269.28000000000003" y="880.4999999999998" as="sourcePoint" />
            <mxPoint x="269.48" y="898.4999999999998" as="targetPoint" />
          </mxGeometry>
        </mxCell>
        <mxCell id="BSecliJgVKlYDWdbfUVO-133" value="" style="endArrow=oval;html=1;rounded=0;endFill=1;strokeColor=#7EA6E0;" parent="1" edge="1">
          <mxGeometry width="50" height="50" relative="1" as="geometry">
            <mxPoint x="278.48" y="880.5" as="sourcePoint" />
            <mxPoint x="278.48" y="911.5" as="targetPoint" />
          </mxGeometry>
        </mxCell>
        <mxCell id="BSecliJgVKlYDWdbfUVO-134" value="" style="endArrow=oval;html=1;rounded=0;endFill=1;strokeColor=#7EA6E0;exitX=0;exitY=0;exitDx=0;exitDy=0;startSize=1;" parent="1" edge="1">
          <mxGeometry width="50" height="50" relative="1" as="geometry">
            <mxPoint x="288.48" y="880.5" as="sourcePoint" />
            <mxPoint x="288.48" y="916.5" as="targetPoint" />
          </mxGeometry>
        </mxCell>
        <mxCell id="BSecliJgVKlYDWdbfUVO-135" value="" style="endArrow=oval;html=1;rounded=0;endFill=1;strokeColor=#7EA6E0;" parent="1" edge="1">
          <mxGeometry width="50" height="50" relative="1" as="geometry">
            <mxPoint x="299.35" y="880.0000000000002" as="sourcePoint" />
            <mxPoint x="299.35" y="911.0000000000002" as="targetPoint" />
          </mxGeometry>
        </mxCell>
        <mxCell id="BSecliJgVKlYDWdbfUVO-136" value="" style="endArrow=oval;html=1;rounded=0;endFill=1;strokeColor=#7EA6E0;entryX=0.091;entryY=0.316;entryDx=0;entryDy=0;entryPerimeter=0;" parent="1" edge="1">
          <mxGeometry width="50" height="50" relative="1" as="geometry">
            <mxPoint x="308.48" y="880.4999999999998" as="sourcePoint" />
            <mxPoint x="308.68" y="898.4999999999998" as="targetPoint" />
          </mxGeometry>
        </mxCell>
        <mxCell id="BSecliJgVKlYDWdbfUVO-137" value="" style="endArrow=none;html=1;rounded=0;strokeColor=#919191;endFill=0;dashed=1;dashPattern=1 2;" parent="1" edge="1">
          <mxGeometry width="50" height="50" relative="1" as="geometry">
            <mxPoint x="230" y="914" as="sourcePoint" />
            <mxPoint x="230" y="830" as="targetPoint" />
          </mxGeometry>
        </mxCell>
        <mxCell id="BSecliJgVKlYDWdbfUVO-138" value="" style="endArrow=none;html=1;rounded=0;strokeColor=#919191;endFill=0;dashed=1;dashPattern=1 2;" parent="1" edge="1">
          <mxGeometry width="50" height="50" relative="1" as="geometry">
            <mxPoint x="241" y="914" as="sourcePoint" />
            <mxPoint x="241" y="830" as="targetPoint" />
          </mxGeometry>
        </mxCell>
        <mxCell id="BSecliJgVKlYDWdbfUVO-139" value="" style="endArrow=blockThin;startArrow=blockThin;html=1;rounded=0;endFill=1;startFill=1;strokeColor=#CCCCCC;" parent="1" edge="1">
          <mxGeometry width="50" height="50" relative="1" as="geometry">
            <mxPoint x="225" y="904" as="sourcePoint" />
            <mxPoint x="245" y="904" as="targetPoint" />
          </mxGeometry>
        </mxCell>
        <mxCell id="BSecliJgVKlYDWdbfUVO-140" value="&lt;font style=&quot;font-size: 14px;&quot;&gt;$$T_s$$&lt;/font&gt;" style="text;html=1;align=center;verticalAlign=middle;whiteSpace=wrap;rounded=0;" parent="1" vertex="1">
          <mxGeometry x="210" y="910" width="60" height="30" as="geometry" />
        </mxCell>
        <mxCell id="BSecliJgVKlYDWdbfUVO-142" value="" style="endArrow=none;html=1;rounded=0;endFill=0;strokeColor=#b85450;dashed=1;dashPattern=1 1;fillColor=#f8cecc;strokeWidth=2;" parent="1" edge="1">
          <mxGeometry width="50" height="50" relative="1" as="geometry">
            <mxPoint x="680" y="840.0000000000001" as="sourcePoint" />
            <mxPoint x="970" y="840" as="targetPoint" />
          </mxGeometry>
        </mxCell>
        <mxCell id="BSecliJgVKlYDWdbfUVO-143" value="" style="endArrow=none;html=1;rounded=0;endFill=0;strokeColor=#b85450;dashed=1;dashPattern=1 1;fillColor=#f8cecc;strokeWidth=2;" parent="1" edge="1">
          <mxGeometry width="50" height="50" relative="1" as="geometry">
            <mxPoint x="680" y="240.0000000000001" as="sourcePoint" />
            <mxPoint x="970" y="240" as="targetPoint" />
          </mxGeometry>
        </mxCell>
        <mxCell id="BSecliJgVKlYDWdbfUVO-144" value="" style="endArrow=none;html=1;rounded=0;endFill=0;strokeColor=#b85450;dashed=1;dashPattern=1 1;fillColor=#f8cecc;strokeWidth=2;" parent="1" edge="1">
          <mxGeometry width="50" height="50" relative="1" as="geometry">
            <mxPoint x="680" y="440.0000000000001" as="sourcePoint" />
            <mxPoint x="970" y="440" as="targetPoint" />
          </mxGeometry>
        </mxCell>
        <mxCell id="BSecliJgVKlYDWdbfUVO-145" value="" style="endArrow=none;html=1;rounded=0;endFill=0;strokeColor=#b85450;dashed=1;dashPattern=1 1;fillColor=#f8cecc;strokeWidth=2;" parent="1" edge="1">
          <mxGeometry width="50" height="50" relative="1" as="geometry">
            <mxPoint x="680" y="640.0000000000001" as="sourcePoint" />
            <mxPoint x="970" y="640" as="targetPoint" />
          </mxGeometry>
        </mxCell>
        <mxCell id="BSecliJgVKlYDWdbfUVO-146" value="&lt;font style=&quot;font-size: 16px;&quot;&gt;$$2T_0$$&lt;/font&gt;" style="text;html=1;align=center;verticalAlign=middle;whiteSpace=wrap;rounded=0;" parent="1" vertex="1">
          <mxGeometry x="422" y="280" width="60" height="30" as="geometry" />
        </mxCell>
        <mxCell id="BSecliJgVKlYDWdbfUVO-147" value="" style="endArrow=blockThin;html=1;rounded=0;endFill=1;strokeColor=#919191;" parent="1" edge="1">
          <mxGeometry width="50" height="50" relative="1" as="geometry">
            <mxPoint x="240" y="550" as="sourcePoint" />
            <mxPoint x="240" y="610.69" as="targetPoint" />
          </mxGeometry>
        </mxCell>
        <mxCell id="BSecliJgVKlYDWdbfUVO-148" value="&lt;font style=&quot;font-size: 15px;&quot;&gt;&lt;i&gt;sampling&lt;/i&gt;&lt;/font&gt;" style="text;html=1;align=center;verticalAlign=middle;whiteSpace=wrap;rounded=0;" parent="1" vertex="1">
          <mxGeometry x="245" y="560.69" width="60" height="30" as="geometry" />
        </mxCell>
        <mxCell id="BSecliJgVKlYDWdbfUVO-150" value="" style="endArrow=blockThin;html=1;rounded=0;endFill=1;strokeColor=#919191;" parent="1" edge="1">
          <mxGeometry width="50" height="50" relative="1" as="geometry">
            <mxPoint x="240" y="760" as="sourcePoint" />
            <mxPoint x="240" y="820.69" as="targetPoint" />
          </mxGeometry>
        </mxCell>
        <mxCell id="BSecliJgVKlYDWdbfUVO-151" value="&lt;div style=&quot;font-size: 15px;&quot;&gt;&lt;font style=&quot;font-size: 15px;&quot;&gt;&lt;i&gt;impulse train&lt;/i&gt;&lt;/font&gt;&lt;/div&gt;&lt;div style=&quot;font-size: 15px;&quot;&gt;&lt;font style=&quot;font-size: 15px;&quot;&gt;&lt;i&gt;to discrete-time&lt;/i&gt;&lt;/font&gt;&lt;/div&gt;&lt;div style=&quot;font-size: 15px;&quot;&gt;&lt;font style=&quot;font-size: 15px;&quot;&gt;&lt;i&gt;sequence&lt;/i&gt;&lt;/font&gt;&lt;/div&gt;" style="text;html=1;align=center;verticalAlign=middle;whiteSpace=wrap;rounded=0;" parent="1" vertex="1">
          <mxGeometry x="220" y="780" width="151" height="30.69" as="geometry" />
        </mxCell>
        <mxCell id="BSecliJgVKlYDWdbfUVO-152" value="&lt;font style=&quot;font-size: 18px;&quot; color=&quot;#ff3333&quot;&gt;$$\frac{T_0}{T_s}\pi\cdot\frac{1}{2\pi}=N\pi\cdot\frac{1}{2\pi}$$&lt;/font&gt;" style="text;html=1;align=center;verticalAlign=middle;whiteSpace=wrap;rounded=0;" parent="1" vertex="1">
          <mxGeometry x="1040" y="830" width="60" height="30" as="geometry" />
        </mxCell>
        <mxCell id="60wunXz67_nyWX1VpyIN-1" value="" style="endArrow=none;html=1;rounded=0;exitX=0.168;exitY=0.003;exitDx=0;exitDy=0;exitPerimeter=0;strokeColor=#97D077;strokeWidth=2;" parent="1" source="BSecliJgVKlYDWdbfUVO-29" edge="1">
          <mxGeometry width="50" height="50" relative="1" as="geometry">
            <mxPoint x="670" y="490" as="sourcePoint" />
            <mxPoint x="720" y="440" as="targetPoint" />
          </mxGeometry>
        </mxCell>
        <mxCell id="60wunXz67_nyWX1VpyIN-2" value="" style="endArrow=none;html=1;rounded=0;exitX=0.827;exitY=0.009;exitDx=0;exitDy=0;exitPerimeter=0;strokeColor=#97D077;strokeWidth=2;" parent="1" source="BSecliJgVKlYDWdbfUVO-29" edge="1">
          <mxGeometry width="50" height="50" relative="1" as="geometry">
            <mxPoint x="710" y="527" as="sourcePoint" />
            <mxPoint x="720" y="440" as="targetPoint" />
          </mxGeometry>
        </mxCell>
        <mxCell id="60wunXz67_nyWX1VpyIN-3" value="" style="endArrow=none;html=1;rounded=0;exitX=0.168;exitY=0.003;exitDx=0;exitDy=0;exitPerimeter=0;strokeColor=#97D077;strokeWidth=2;" parent="1" edge="1">
          <mxGeometry width="50" height="50" relative="1" as="geometry">
            <mxPoint x="860" y="519" as="sourcePoint" />
            <mxPoint x="880" y="440" as="targetPoint" />
          </mxGeometry>
        </mxCell>
        <mxCell id="60wunXz67_nyWX1VpyIN-4" value="" style="endArrow=none;html=1;rounded=0;exitX=0.827;exitY=0.009;exitDx=0;exitDy=0;exitPerimeter=0;strokeColor=#97D077;strokeWidth=2;" parent="1" edge="1">
          <mxGeometry width="50" height="50" relative="1" as="geometry">
            <mxPoint x="900" y="519" as="sourcePoint" />
            <mxPoint x="880" y="440" as="targetPoint" />
          </mxGeometry>
        </mxCell>
        <mxCell id="60wunXz67_nyWX1VpyIN-5" value="" style="endArrow=none;html=1;rounded=0;exitX=0.168;exitY=0.003;exitDx=0;exitDy=0;exitPerimeter=0;strokeColor=#97D077;strokeWidth=2;" parent="1" edge="1">
          <mxGeometry width="50" height="50" relative="1" as="geometry">
            <mxPoint x="700" y="718.5" as="sourcePoint" />
            <mxPoint x="720" y="639.5" as="targetPoint" />
          </mxGeometry>
        </mxCell>
        <mxCell id="60wunXz67_nyWX1VpyIN-6" value="" style="endArrow=none;html=1;rounded=0;exitX=0.827;exitY=0.009;exitDx=0;exitDy=0;exitPerimeter=0;strokeColor=#97D077;strokeWidth=2;" parent="1" edge="1">
          <mxGeometry width="50" height="50" relative="1" as="geometry">
            <mxPoint x="740" y="718.5" as="sourcePoint" />
            <mxPoint x="720" y="639.5" as="targetPoint" />
          </mxGeometry>
        </mxCell>
        <mxCell id="60wunXz67_nyWX1VpyIN-7" value="" style="endArrow=none;html=1;rounded=0;exitX=0.168;exitY=0.003;exitDx=0;exitDy=0;exitPerimeter=0;strokeColor=#97D077;strokeWidth=2;" parent="1" edge="1">
          <mxGeometry width="50" height="50" relative="1" as="geometry">
            <mxPoint x="860" y="718.5" as="sourcePoint" />
            <mxPoint x="880" y="639.5" as="targetPoint" />
          </mxGeometry>
        </mxCell>
        <mxCell id="60wunXz67_nyWX1VpyIN-8" value="" style="endArrow=none;html=1;rounded=0;exitX=0.827;exitY=0.009;exitDx=0;exitDy=0;exitPerimeter=0;strokeColor=#97D077;strokeWidth=2;" parent="1" edge="1">
          <mxGeometry width="50" height="50" relative="1" as="geometry">
            <mxPoint x="900" y="718.5" as="sourcePoint" />
            <mxPoint x="880" y="639.5" as="targetPoint" />
          </mxGeometry>
        </mxCell>
        <mxCell id="60wunXz67_nyWX1VpyIN-9" value="" style="endArrow=none;html=1;rounded=0;exitX=0.168;exitY=0.003;exitDx=0;exitDy=0;exitPerimeter=0;strokeColor=#97D077;strokeWidth=2;" parent="1" edge="1">
          <mxGeometry width="50" height="50" relative="1" as="geometry">
            <mxPoint x="700" y="919.5" as="sourcePoint" />
            <mxPoint x="720" y="840.5" as="targetPoint" />
          </mxGeometry>
        </mxCell>
        <mxCell id="60wunXz67_nyWX1VpyIN-10" value="" style="endArrow=none;html=1;rounded=0;exitX=0.827;exitY=0.009;exitDx=0;exitDy=0;exitPerimeter=0;strokeColor=#97D077;strokeWidth=2;" parent="1" edge="1">
          <mxGeometry width="50" height="50" relative="1" as="geometry">
            <mxPoint x="740" y="919.5" as="sourcePoint" />
            <mxPoint x="720" y="840.5" as="targetPoint" />
          </mxGeometry>
        </mxCell>
        <mxCell id="60wunXz67_nyWX1VpyIN-11" value="" style="endArrow=none;html=1;rounded=0;exitX=0.168;exitY=0.003;exitDx=0;exitDy=0;exitPerimeter=0;strokeColor=#97D077;strokeWidth=2;" parent="1" edge="1">
          <mxGeometry width="50" height="50" relative="1" as="geometry">
            <mxPoint x="860" y="919.5" as="sourcePoint" />
            <mxPoint x="880" y="840.5" as="targetPoint" />
          </mxGeometry>
        </mxCell>
        <mxCell id="60wunXz67_nyWX1VpyIN-12" value="" style="endArrow=none;html=1;rounded=0;exitX=0.827;exitY=0.009;exitDx=0;exitDy=0;exitPerimeter=0;strokeColor=#97D077;strokeWidth=2;" parent="1" edge="1">
          <mxGeometry width="50" height="50" relative="1" as="geometry">
            <mxPoint x="900" y="919.5" as="sourcePoint" />
            <mxPoint x="880" y="840.5" as="targetPoint" />
          </mxGeometry>
        </mxCell>
        <mxCell id="60wunXz67_nyWX1VpyIN-13" value="" style="endArrow=oval;html=1;rounded=0;endFill=1;strokeWidth=1;strokeColor=#999999;endSize=3;dashed=1;opacity=60;" parent="1" edge="1">
          <mxGeometry width="50" height="50" relative="1" as="geometry">
            <mxPoint x="719.8" y="519" as="sourcePoint" />
            <mxPoint x="720" y="440" as="targetPoint" />
          </mxGeometry>
        </mxCell>
        <mxCell id="60wunXz67_nyWX1VpyIN-14" value="" style="endArrow=oval;html=1;rounded=0;endFill=1;strokeWidth=1;strokeColor=#999999;endSize=3;dashed=1;opacity=60;" parent="1" edge="1">
          <mxGeometry width="50" height="50" relative="1" as="geometry">
            <mxPoint x="879.89" y="519" as="sourcePoint" />
            <mxPoint x="880.09" y="440" as="targetPoint" />
          </mxGeometry>
        </mxCell>
        <mxCell id="60wunXz67_nyWX1VpyIN-15" value="" style="endArrow=oval;html=1;rounded=0;endFill=1;strokeWidth=1;strokeColor=#999999;endSize=3;dashed=1;opacity=60;" parent="1" edge="1">
          <mxGeometry width="50" height="50" relative="1" as="geometry">
            <mxPoint x="720" y="719" as="sourcePoint" />
            <mxPoint x="720.2" y="640" as="targetPoint" />
          </mxGeometry>
        </mxCell>
        <mxCell id="60wunXz67_nyWX1VpyIN-16" value="" style="endArrow=oval;html=1;rounded=0;endFill=1;strokeWidth=1;strokeColor=#999999;endSize=3;dashed=1;opacity=60;" parent="1" edge="1">
          <mxGeometry width="50" height="50" relative="1" as="geometry">
            <mxPoint x="880.09" y="719" as="sourcePoint" />
            <mxPoint x="880.2900000000001" y="640" as="targetPoint" />
          </mxGeometry>
        </mxCell>
        <mxCell id="60wunXz67_nyWX1VpyIN-17" value="" style="endArrow=oval;html=1;rounded=0;endFill=1;strokeWidth=1;strokeColor=#999999;endSize=3;dashed=1;opacity=60;" parent="1" edge="1">
          <mxGeometry width="50" height="50" relative="1" as="geometry">
            <mxPoint x="720" y="919" as="sourcePoint" />
            <mxPoint x="720.2" y="840" as="targetPoint" />
          </mxGeometry>
        </mxCell>
        <mxCell id="60wunXz67_nyWX1VpyIN-18" value="" style="endArrow=oval;html=1;rounded=0;endFill=1;strokeWidth=1;strokeColor=#999999;endSize=3;dashed=1;opacity=60;" parent="1" edge="1">
          <mxGeometry width="50" height="50" relative="1" as="geometry">
            <mxPoint x="880.09" y="919" as="sourcePoint" />
            <mxPoint x="880.2900000000001" y="840" as="targetPoint" />
          </mxGeometry>
        </mxCell>
        <mxCell id="60wunXz67_nyWX1VpyIN-19" value="&lt;b style=&quot;&quot;&gt;&lt;font style=&quot;font-size: 24px;&quot;&gt;...&lt;/font&gt;&lt;/b&gt;" style="text;html=1;align=center;verticalAlign=middle;whiteSpace=wrap;rounded=0;" parent="1" vertex="1">
          <mxGeometry x="645" y="670" width="60" height="30" as="geometry" />
        </mxCell>
        <mxCell id="60wunXz67_nyWX1VpyIN-20" value="&lt;b style=&quot;&quot;&gt;&lt;font style=&quot;font-size: 24px;&quot;&gt;...&lt;/font&gt;&lt;/b&gt;" style="text;html=1;align=center;verticalAlign=middle;whiteSpace=wrap;rounded=0;" parent="1" vertex="1">
          <mxGeometry x="910" y="670" width="60" height="30" as="geometry" />
        </mxCell>
        <mxCell id="60wunXz67_nyWX1VpyIN-21" value="&lt;b style=&quot;&quot;&gt;&lt;font style=&quot;font-size: 24px;&quot;&gt;...&lt;/font&gt;&lt;/b&gt;" style="text;html=1;align=center;verticalAlign=middle;whiteSpace=wrap;rounded=0;" parent="1" vertex="1">
          <mxGeometry x="647.5" y="870" width="60" height="30" as="geometry" />
        </mxCell>
        <mxCell id="60wunXz67_nyWX1VpyIN-22" value="&lt;b style=&quot;&quot;&gt;&lt;font style=&quot;font-size: 24px;&quot;&gt;...&lt;/font&gt;&lt;/b&gt;" style="text;html=1;align=center;verticalAlign=middle;whiteSpace=wrap;rounded=0;" parent="1" vertex="1">
          <mxGeometry x="912.5" y="870" width="60" height="30" as="geometry" />
        </mxCell>
        <mxCell id="2Y8Rr0PxTdIzkAtCl3qo-1" value="&lt;font style=&quot;font-size: 18px;&quot; color=&quot;#ff3333&quot;&gt;$$\frac{T_0}{T_s}\pi\cdot\frac{1}{2\pi}$$&lt;/font&gt;" style="text;html=1;align=center;verticalAlign=middle;whiteSpace=wrap;rounded=0;" vertex="1" parent="1">
          <mxGeometry x="1003" y="639" width="60" height="30" as="geometry" />
        </mxCell>
      </root>
    </mxGraphModel>
  </diagram>
</mxfile>
